PathFileType	4	(X/Y/Z)	/Users/itak/Documents/Research/Walk-IL/dataset/trc/00104_00007.trc
DataRate	CameraRate	NumFrames	NumMarkers	Units	OrigDataRate	OrigDataStartFrame	OrigNumFrames
100.000000	100.000000	4	53	mm	100.000000	377	604
Frame#	Time	RPSI			LPSI			L3			STRN			T10			C7			CLAV			RBAK			LBAK			LSHO			LUPA			LAEL			LAOL			LWTS			LWPS			LFRA			LIFD			LHPS			LHTS			RSHO			RUPA			RAEL			RAOL			RWTS			RWPS			RFRA			RIFD			RHTS			RHPS			RBHD			LFHD			RFHD			LBHD			LHIP			RHIP			RASI			LASI			LKNE			LTHI			LANK			LTIP			LTOE			LMT1			LMT5			LHEE			RKNE			RTHI			RANK			RTIP			RTOE			RMT1			RMT5			RHEE			
		X1	Y1	Z1	X2	Y2	Z2	X3	Y3	Z3	X4	Y4	Z4	X5	Y5	Z5	X6	Y6	Z6	X7	Y7	Z7	X8	Y8	Z8	X9	Y9	Z9	X10	Y10	Z10	X11	Y11	Z11	X12	Y12	Z12	X13	Y13	Z13	X14	Y14	Z14	X15	Y15	Z15	X16	Y16	Z16	X17	Y17	Z17	X18	Y18	Z18	X19	Y19	Z19	X20	Y20	Z20	X21	Y21	Z21	X22	Y22	Z22	X23	Y23	Z23	X24	Y24	Z24	X25	Y25	Z25	X26	Y26	Z26	X27	Y27	Z27	X28	Y28	Z28	X29	Y29	Z29	X30	Y30	Z30	X31	Y31	Z31	X32	Y32	Z32	X33	Y33	Z33	X34	Y34	Z34	X35	Y35	Z35	X36	Y36	Z36	X37	Y37	Z37	X38	Y38	Z38	X39	Y39	Z39	X40	Y40	Z40	X41	Y41	Z41	X42	Y42	Z42	X43	Y43	Z43	X44	Y44	Z44	X45	Y45	Z45	X46	Y46	Z46	X47	Y47	Z47	X48	Y48	Z48	X49	Y49	Z49	X50	Y50	Z50	X51	Y51	Z51	X52	Y52	Z52	X53	Y53	Z53	

378	3.77	-259.3261413574219	1107.465942382812	-302.6361999511719	-254.8462524414062	1117.564453125	-437.9296264648438	-265.2197875976562	1151.0537109375	-374.4349365234375	-45.22727966308594	1355.993041992188	-363.6132202148438	-300.7242126464844	1304.578002929688	-379.0374145507812	-259.7608032226562	1595.62939453125	-392.1395568847656	-79.99076080322266	1491.163208007812	-366.9280395507812	-320.6755065917969	1410.756713867188	-311.2115478515625	-258.7212219238281	1577.83447265625	-494.7884521484375	-165.225830078125	1567.65185546875	-551.8212890625	-161.1903076171875	1441.082275390625	-629.5844116210938	-97.22225952148438	1233.31884765625	-666.3219604492188	-163.1639709472656	1199.483154296875	-619.29296875	71.02835083007812	1014.683532714844	-630.8058471679688	2.419631719589233	966.8107299804688	-666.3291015625	-48.28696823120117	1127.016845703125	-676.6461791992188	140.2359466552734	834.3784790039062	-619.7402954101562	53.5947265625	905.0535888671875	-669.3483276367188	113.7721862792969	935.4776611328125	-646.3118286132812	-219.9890594482422	1574.896850585938	-205.59423828125	-245.3576507568359	1502.766967773438	-145.4390869140625	-288.5767822265625	1213.115234375	-133.2110748291016	-281.0550537109375	1214.232421875	-229.9706573486328	-174.9861907958984	954.5015258789062	-137.3386840820312	-253.6814422607422	947.015380859375	-114.385627746582	-275.4170532226562	1137.820678710938	-116.8909912109375	-176.1615905761719	758.2889404296875	-163.3429412841797	-161.8129425048828	842.0913696289062	-135.5304565429688	-231.1097412109375	842.6448974609375	-112.1394271850586	-215.5013427734375	1771.52001953125	-303.2543640136719	-52.9106559753418	1828.998779296875	-438.8567199707031	-50.88733291625977	1836.427001953125	-309.5534362792969	-225.4450531005859	1768.298461914062	-438.8686218261719	-159.3154602050781	1035.978637695312	-548.3916625976562	-123.7843170166016	1018.333862304688	-184.9760589599609	-51.17498397827148	1097.246704101562	-238.9520874023438	-53.14576721191406	1100.959228515625	-504.2683715820312	-133.7592163085938	529.9739990234375	-501.5950317382812	-152.8071136474609	676.5419311523438	-534.9834594726562	-267.0534973144531	34.12726211547852	-472.9836120605469	-241.1397552490234	284.4228515625	-516.1365966796875	-33.79750061035156	35.6944465637207	-420.4351501464844	-115.1945571899414	39.91555023193359	-384.8580627441406	-144.5464782714844	33.4793586730957	-501.0440063476562	-335.0452575683594	37.61279678344727	-411.2411499023438	60.65617752075195	564.6397094726562	-226.7567901611328	-35.85154724121094	826.777587890625	-191.0656127929688	-37.46009826660156	44.63479614257812	-221.5799407958984	37.77041244506836	427.5204467773438	-210.1413269042969	189.4030609130859	81.2274169921875	-244.4120941162109	140.3910675048828	59.50397491455078	-293.9813537597656	89.39924621582031	55.25994491577148	-183.7344055175781	-89.29212951660156	47.1744384765625	-276.4949035644531	
379	3.78	-251.6483306884766	1106.981201171875	-302.170166015625	-247.4250335693359	1116.98974609375	-437.4682006835938	-257.6092224121094	1150.539306640625	-374.0208129882812	-37.62249755859375	1355.237915039062	-363.2449645996094	-293.164306640625	1304.023071289062	-378.8111267089844	-252.0462188720703	1595.004272460938	-391.8439331054688	-72.29596710205078	1490.443481445312	-366.40185546875	-313.1039733886719	1410.080810546875	-311.1988220214844	-250.8477783203125	1577.336669921875	-494.5252685546875	-157.2165679931641	1567.212158203125	-551.2877807617188	-152.7063751220703	1440.862548828125	-629.2490844726562	-87.67888641357422	1233.455932617188	-666.1429443359375	-153.5401763916016	1199.064819335938	-619.3882446289062	83.44509887695312	1017.381225585938	-629.8155517578125	15.63660621643066	968.3397827148438	-665.4268798828125	-37.44051361083984	1127.742065429688	-676.257568359375	155.7495269775391	838.474365234375	-618.2501831054688	67.90695953369141	907.4481201171875	-668.1791381835938	127.5402603149414	938.8619384765625	-645.0284423828125	-212.5671081542969	1574.084350585938	-205.2394561767578	-238.1877288818359	1501.910766601562	-145.2473907470703	-281.7593688964844	1212.28564453125	-133.6227111816406	-273.8026123046875	1213.5419921875	-230.3550872802734	-168.3312683105469	953.5968627929688	-137.6464233398438	-247.0990142822266	946.1385498046875	-115.0212707519531	-268.7164001464844	1136.966430664062	-117.3421325683594	-169.5084075927734	757.42919921875	-163.9009399414062	-155.2451934814453	841.1741333007812	-135.9381103515625	-224.6408386230469	841.7470092773438	-112.8451614379883	-207.7561187744141	1770.774169921875	-302.6099243164062	-44.93086624145508	1828.2880859375	-437.9235229492188	-42.82612228393555	1835.717895507812	-308.7707824707031	-217.5245819091797	1767.727294921875	-438.2470092773438	-151.7952728271484	1035.193237304688	-547.9614868164062	-116.0840072631836	1017.876708984375	-184.5422058105469	-43.50166320800781	1096.621337890625	-238.7076721191406	-45.81171035766602	1100.077880859375	-504.0431823730469	-129.3848266601562	529.2471923828125	-501.1084899902344	-147.5301971435547	675.9118041992188	-534.4290771484375	-266.9748840332031	34.41038131713867	-472.8222351074219	-238.8665161132812	284.3858032226562	-515.8446655273438	-33.68513870239258	35.51791381835938	-420.5553588867188	-114.9364624023438	39.96990966796875	-384.9413757324219	-144.5254974365234	33.52462768554688	-500.920654296875	-335.07861328125	37.9947395324707	-411.0792846679688	68.14363098144531	564.4904174804688	-226.0034484863281	-28.4856128692627	826.225341796875	-190.2426300048828	-9.448622703552246	41.44496536254883	-221.8955230712891	50.30637359619141	426.8539123535156	-209.5086364746094	215.9669189453125	84.91139984130859	-246.6329040527344	167.2435455322266	61.88179779052734	-295.5109252929688	117.2369766235352	56.07861328125	-185.0634613037109	-61.74288940429688	42.51132202148438	-276.3231811523438	
380	3.79	-243.9355621337891	1106.392211914062	-301.6261291503906	-240.0011749267578	1116.345458984375	-436.9280395507812	-249.9779663085938	1149.945678710938	-373.5077819824219	-29.98924827575684	1354.411987304688	-362.8349914550781	-285.56982421875	1303.3916015625	-378.4591979980469	-244.3193359375	1594.307373046875	-391.4593505859375	-64.58141326904297	1489.6455078125	-365.8361511230469	-305.5008544921875	1409.330444335938	-311.0603942871094	-242.9899444580078	1576.760375976562	-494.1723327636719	-149.2372283935547	1566.6708984375	-550.6917724609375	-144.3019714355469	1440.528686523438	-628.833984375	-78.30899810791016	1233.4482421875	-665.8787841796875	-144.0670471191406	1198.547241210938	-619.3657836914062	95.52647399902344	1019.879089355469	-628.671142578125	28.5232105255127	969.7308959960938	-664.3746337890625	-26.85458564758301	1128.310180664062	-675.7494506835938	170.7010803222656	842.2900390625	-616.5020141601562	81.81256103515625	909.66748046875	-666.8178100585938	140.9007110595703	942.043701171875	-643.5575561523438	-205.0775604248047	1573.209594726562	-204.8125762939453	-230.9219970703125	1500.994262695312	-144.9723663330078	-274.7918701171875	1211.388061523438	-133.9068603515625	-266.467529296875	1212.7734375	-230.6123962402344	-161.4177398681641	952.66259765625	-137.8459930419922	-240.2515869140625	945.2010498046875	-115.5154495239258	-261.8558654785156	1136.0517578125	-117.666862487793	-162.5435943603516	756.5360717773438	-164.3370971679688	-148.3887481689453	840.234619140625	-136.2376251220703	-217.8616333007812	840.7998657226562	-113.4128799438477	-200.0129089355469	1769.941528320312	-301.9146423339844	-36.95861053466797	1827.532958984375	-436.97412109375	-34.81544876098633	1834.954467773438	-307.9541320800781	-209.6191253662109	1767.056396484375	-437.5886535644531	-144.3536224365234	1034.365478515625	-547.5125122070312	-108.3260650634766	1017.294250488281	-184.10546875	-35.7492790222168	1095.89404296875	-238.4357147216797	-38.48404693603516	1099.14501953125	-503.7826232910156	-124.9819869995117	528.48828125	-500.650390625	-142.2398986816406	675.25634765625	-533.8871459960938	-266.9008178710938	34.70834732055664	-472.660400390625	-236.5868225097656	284.3486328125	-515.5494384765625	-33.57883834838867	35.35078430175781	-420.7141723632812	-114.6811676025391	40.0438117980957	-385.0322265625	-144.4981842041016	33.56682205200195	-500.8086853027344	-335.1028137207031	38.39959716796875	-410.9172973632812	75.34686279296875	564.07861328125	-225.2407531738281	-21.16463470458984	825.462890625	-189.43994140625	18.03339767456055	38.85402297973633	-222.2333679199219	62.53561019897461	426.1513366699219	-208.8822784423828	241.7604217529297	88.9239501953125	-249.2171478271484	193.3012542724609	64.71588134765625	-297.346435546875	144.4795532226562	57.38625335693359	-186.6120910644531	-34.72632217407227	38.45679473876953	-276.0980224609375	
381	3.8	-236.1815490722656	1105.697143554688	-301.0055847167969	-232.5712432861328	1115.626586914062	-436.3103942871094	-242.3287506103516	1149.266845703125	-372.8975524902344	-22.32271766662598	1353.520263671875	-362.3878784179688	-277.9461364746094	1302.68115234375	-377.9770202636719	-236.5818939208984	1593.53857421875	-390.9799499511719	-56.84539031982422	1488.77294921875	-365.232666015625	-297.8550109863281	1408.502319335938	-310.7832946777344	-235.1490173339844	1576.103881835938	-493.7254028320312	-141.2962646484375	1566.023315429688	-550.0339965820312	-135.9872131347656	1440.0712890625	-628.3350219726562	-69.11051177978516	1233.290649414062	-665.5266723632812	-134.7533416748047	1197.922973632812	-619.223876953125	107.2689590454102	1022.155517578125	-627.3863525390625	41.07767105102539	970.9638671875	-663.1879272460938	-16.52032279968262	1128.714477539062	-675.1273193359375	185.0926055908203	845.8161010742188	-614.52587890625	95.30059814453125	911.6865844726562	-665.2838134765625	153.845458984375	944.9948120117188	-641.9221801757812	-197.516357421875	1572.273559570312	-204.3096160888672	-223.5375366210938	1500.020141601562	-144.6012573242188	-267.6749877929688	1210.425537109375	-134.0555725097656	-259.0534057617188	1211.9306640625	-230.7354583740234	-154.2508850097656	951.7003173828125	-137.9353942871094	-233.1452484130859	944.2051391601562	-115.8641891479492	-254.8330535888672	1135.084228515625	-117.8593673706055	-155.2736968994141	755.6115112304688	-164.6566009521484	-141.2444000244141	839.27392578125	-136.4270629882812	-210.7766876220703	839.8040161132812	-113.8406372070312	-192.2698059082031	1769.0263671875	-301.1689758300781	-28.98195266723633	1826.73974609375	-436.0132141113281	-26.87699317932129	1834.115966796875	-307.0850219726562	-201.7275543212891	1766.291381835938	-436.88916015625	-137.0018157958984	1033.500610351562	-547.0457153320312	-100.5004196166992	1016.591064453125	-183.6597747802734	-27.90951538085938	1095.069091796875	-238.1419677734375	-31.15986061096191	1098.16552734375	-503.4893493652344	-120.5476989746094	527.6959838867188	-500.2301940917969	-136.9248199462891	674.5770263671875	-533.3644409179688	-266.8367004394531	35.01404190063477	-472.4969482421875	-234.2960357666016	284.3146057128906	-515.2571411132812	-33.47052764892578	35.19686508178711	-420.8947143554688	-114.4501342773438	40.11141586303711	-385.1065063476562	-144.4636535644531	33.60466003417969	-500.7109680175781	-335.1107788085938	38.83725357055664	-410.7584228515625	82.31554412841797	563.4183959960938	-224.4571838378906	-13.86647987365723	824.510498046875	-188.6555633544922	44.86140441894531	36.84389495849609	-222.6021423339844	74.4537353515625	425.4305114746094	-208.2582702636719	266.6523132324219	93.317626953125	-252.1474151611328	218.4423980712891	68.05686950683594	-299.5210266113281	171.0042114257812	59.19007873535156	-188.3822784423828	-8.383675575256348	34.98129272460938	-275.8300476074219	
